<svg viewBox="0 0 167 1246.26" xmlns="http://www.w3.org/2000/svg" xmlns:xlink="http://www.w3.org/1999/xlink" id="Layer_2" overflow="hidden"><defs/><g id="Layer_1-2"><g><path d="M159.5 1144.22C154.45 1148.87 148.34 1151.21 141.16 1151.21 136.91 1151.21 132.65 1150.71 128.4 1149.6 124.25 1148.48 120.59 1147.47 117.55 1146.35 116.12 1147.36 113.99 1149.49 111.17 1152.84 108.42 1156.18 105.28 1160.23 101.73 1164.98 104.97 1178.78 107.62 1188.62 109.54 1194.37 111.56 1200.16 113.4 1206.13 115.22 1212.01 116.75 1216.78 118.96 1220.52 122.02 1223.17 124.95 1225.89 129.62 1227.22 136 1227.22 138.41 1227.22 141.27 1226.71 144.83 1225.79 148.35 1224.99 151.2 1224.08 153.44 1223.17L150.49 1235.31C141.59 1239.17 133.78 1241.9 127.19 1243.65 120.49 1245.36 114.52 1246.26 109.34 1246.26 105.5 1246.26 101.73 1245.87 98.1 1245.15 94.34 1244.45 90.99 1243.13 87.96 1241.21 84.6 1239.29 81.79 1236.74 79.55 1233.81 77.21 1230.86 75.3 1226.71 73.66 1221.33 72.54 1218.08 71.53 1214.25 70.63 1209.99 69.72 1205.84 68.82 1202.08 67.9 1198.84 65.26 1202.7 63.44 1205.53 62.22 1207.45 61.1 1209.37 59.39 1212.01 57.17 1215.47 49.95 1226.31 43.77 1234.09 38.62 1238.76 33.35 1243.43 27.05 1245.66 19.86 1245.66 14.28 1245.66 9.64 1243.82 5.77 1240.19 1.93 1236.42 0.01 1231.68 0.01 1225.68 0.01 1217.69 2.42 1211.39 7.4 1206.75 12.46 1202.08 18.53 1199.74 25.85 1199.74 30.1 1199.74 34.26 1200.26 38.3 1201.27 42.24 1202.39 46 1203.5 49.45 1204.73 50.85 1203.61 52.98 1201.59 55.83 1198.35 58.66 1195.29 61.7 1191.35 65.04 1186.68 62.01 1174.64 59.57 1165.51 57.65 1159.33 55.73 1153.24 53.05 1144.86 51.13 1138.78 49.49 1134.01 47.54 1131.03 44.39 1128.4 41.36 1125.75 36.78 1124.45 30.61 1124.45 27.86 1124.45 24.93 1124.94 21.58 1125.85 18.24 1126.76 15.41 1127.69 13.18 1128.5L16.21 1116.23C24.34 1112.57 31.93 1109.85 39.22 1108.13 46.42 1106.29 52.51 1105.38 57.36 1105.38 61.82 1105.38 65.56 1105.69 68.72 1106.29 71.86 1106.91 75.21 1108.31 78.63 1110.37 81.88 1112.39 84.73 1114.81 87.15 1117.87 89.48 1120.9 91.51 1124.95 93.03 1130.22 94.15 1133.88 95.54 1139.15 96.45 1143.01 97.36 1146.85 98.08 1150.2 98.79 1152.95 100.61 1150.1 102.66 1147.17 104.68 1144.02 106.6 1140.98 108.42 1138.23 109.85 1135.9 116.75 1125.06 123.03 1117.17 128.51 1112.5 133.98 1107.72 140.16 1105.42 147.13 1105.42 152.71 1105.42 157.48 1107.24 161.33 1110.97 165.09 1114.73 167.01 1119.58 167.01 1125.58 167.01 1133.39 164.47 1139.66 159.51 1144.23" stroke-width="0" fill="#FFFFFF"/><g><path d="M147.5 23.25C159.5 23.25 165.5 37.85 156.9 46.25L124.7 77.85 133.7 87.05C136.1 89.65 137.5 93.05 137.5 96.45L137.5 141.45C137.5 153.45 123.1 159.45 114.7 150.85L83.1 118.65 73.7 127.85C71.3 130.25 67.9 131.65 64.5 131.65L19.3 131.65C7.3 131.65 1.5 117.05 9.9 108.65L42.1 77.05 33.1 67.85C30.7 65.25 29.3 61.85 29.3 58.45L29.3 13.45C29.3 1.45 43.9-4.55 52.3 4.05L83.9 36.25 93.1 27.05C95.5 24.65 98.9 23.25 102.5 23.25L147.5 23.25Z" stroke-width="0" fill="#000000"/><path d="M61.5 259.85C56.3 259.85 51.3 257.85 47.3 254.05L15.9 221.85C8.1 214.05 8.1 201.25 15.9 193.45 23.7 185.45 36.5 185.45 44.3 193.45L75.7 225.25C83.5 233.05 83.5 245.85 75.7 254.05 71.7 257.85 66.7 259.85 61.5 259.85ZM30.1 336.25C24.9 336.25 19.9 334.25 15.9 330.45 8.1 322.25 8.1 309.45 15.9 301.65L47.3 269.85C55.1 261.85 67.9 261.85 75.7 269.85 83.5 277.65 83.5 290.45 75.7 298.25L44.3 330.45C40.3 334.25 35.3 336.25 30.1 336.25ZM105.5 259.85C100.3 259.85 95.3 257.85 91.3 254.05 83.5 245.85 83.5 233.05 91.3 225.25L122.7 193.45C130.5 185.45 143.3 185.45 151.1 193.45 158.9 201.25 158.9 214.05 151.1 221.85L119.7 254.05C115.7 257.85 110.5 259.85 105.5 259.85ZM136.9 336.25C131.7 336.25 126.7 334.25 122.7 330.45L91.3 298.25C83.5 290.45 83.5 277.65 91.3 269.85 99.1 261.85 111.9 261.85 119.7 269.85L151.1 301.65C158.9 309.45 158.9 322.25 151.1 330.45 147.1 334.25 142.1 336.25 136.9 336.25Z" stroke-width="0" fill="#000000"/><path d="M156.7 486.25C156.7 503.45 142.7 517.45 125.5 517.45 108.3 517.45 94.5 503.45 94.5 486.25 94.5 480.05 96.3 474.25 99.5 469.25L84.9 454.65 68.5 470.85C71.1 475.45 72.7 480.65 72.7 486.25 72.7 503.45 58.7 517.45 41.5 517.45 24.3 517.45 10.3 503.45 10.3 486.25 10.3 469.05 24.3 455.25 41.5 455.25 46.7 455.25 51.7 456.45 56.1 458.85L72.5 442.25 58.5 428.25C53.5 431.45 47.7 433.25 41.5 433.25 24.3 433.25 10.3 419.45 10.3 402.25 10.3 385.05 24.3 371.05 41.5 371.05 58.7 371.05 72.7 385.05 72.7 402.25 72.7 406.65 71.7 411.05 69.9 415.05L84.9 429.85 98.1 416.65C95.7 412.45 94.5 407.45 94.5 402.25 94.5 385.05 108.3 371.05 125.5 371.05 142.7 371.05 156.7 385.05 156.7 402.25 156.7 419.45 142.7 433.25 125.5 433.25 120.1 433.25 114.7 431.85 110.3 429.25L97.1 442.25 112.9 457.85C116.7 456.05 121.1 455.25 125.5 455.25 142.7 455.25 156.7 469.05 156.7 486.25Z" stroke-width="0" fill="#000000"/><path d="M42.5 550.45 72.3 580.25C82.3 590.25 82.3 606.45 72.3 616.45 62.3 626.45 45.9 626.45 35.9 616.45L6.3 586.85 42.5 550.45ZM72.3 638.85C82.3 648.85 82.3 665.25 72.3 675.25L42.5 704.85 6.3 668.65 35.9 638.85C46.1 628.85 62.3 628.85 72.3 638.85ZM160.7 586.85 131.1 616.45C121.1 626.45 104.7 626.45 94.7 616.45 84.7 606.45 84.7 590.25 94.7 580.25L124.5 550.45 160.7 586.85ZM94.7 638.85C104.7 628.85 120.9 628.85 131.1 638.85L160.7 668.65 124.5 704.85 94.7 675.25C84.7 665.25 84.7 648.85 94.7 638.85Z" stroke-width="0" fill="#000000"/><path d="M80.7 781.05C81.5 787.85 79.9 805.05 58.5 808.25 37.1 811.25 28.1 795.85 24.7 791.45 21.5 787.25 1.1 748.45 1.1 748.45 0.3 747.05 0.3 745.45 1.1 744.05 2.1 742.65 3.5 741.85 5.1 741.85 5.1 741.85 33.5 740.85 44.1 741.85 54.7 742.65 61.3 746.45 68.7 755.05 76.7 763.85 79.7 774.25 80.7 781.05ZM80.7 841.05C79.7 847.85 76.7 858.25 68.7 867.05 61.3 875.65 54.7 879.45 44.1 880.25 33.5 881.25 5.1 880.25 5.1 880.25 3.5 880.25 2.1 879.45 1.1 878.05 0.3 876.65 0.3 875.05 1.1 873.65 1.1 873.65 21.5 834.85 24.7 830.65 28.1 826.25 37.1 810.85 58.5 813.85 79.7 817.05 81.5 834.25 80.7 841.05ZM165.9 873.65C166.7 875.05 166.7 876.65 165.7 878.05 164.9 879.45 163.5 880.25 161.9 880.25 161.9 880.25 133.5 881.25 122.9 880.25 112.3 879.45 105.7 875.65 98.3 867.05 90.3 858.25 87.3 847.85 86.3 841.05 85.3 834.25 87.1 817.05 108.5 813.85 129.9 810.85 138.9 826.25 142.3 830.65 145.3 834.85 165.9 873.65 165.9 873.65ZM86.3 781.05C87.3 774.25 90.3 763.85 98.3 755.05 105.7 746.45 112.3 742.65 122.9 741.85 133.5 741.05 161.9 741.85 161.9 741.85 163.5 741.85 164.9 742.65 165.7 744.05 166.7 745.45 166.7 747.05 165.9 748.45 165.9 748.45 145.3 787.25 142.3 791.45 138.9 795.85 129.9 811.25 108.5 808.25 87.1 805.05 85.3 787.85 86.3 781.05Z" stroke-width="0" fill="#000000"/><path d="M155.7 1037.85C155.7 1053.65 142.7 1066.65 126.7 1066.65 110.7 1066.65 97.9 1053.65 97.9 1037.85 97.9 1029.85 91.5 1023.25 83.5 1023.25 75.5 1023.25 68.9 1029.85 68.9 1037.85 68.9 1053.65 56.1 1066.65 40.1 1066.65 24.1 1066.65 11.3 1053.65 11.3 1037.85 11.3 1022.05 24.1 1008.85 40.1 1008.85 48.1 1008.85 54.5 1002.45 54.5 994.45 54.5 986.45 48.1 980.05 40.1 980.05 24.1 980.05 11.3 967.05 11.3 951.05 11.3 935.05 24.1 922.25 40.1 922.25 56.1 922.25 68.9 935.25 68.9 951.05 68.9 959.05 75.5 965.65 83.5 965.65 91.5 965.65 97.9 959.05 97.9 951.05 97.9 935.25 110.7 922.25 126.7 922.25 142.7 922.25 155.7 935.25 155.7 951.05 155.7 966.85 142.7 980.05 126.7 980.05 118.7 980.05 112.3 986.45 112.3 994.45 112.3 1002.45 118.7 1008.85 126.7 1008.85 142.7 1008.85 155.7 1021.85 155.7 1037.85Z" stroke-width="0" fill="#000000"/></g></g></g></svg>