<svg viewBox="0 0 107 107" xmlns="http://www.w3.org/2000/svg" xmlns:xlink="http://www.w3.org/1999/xlink" id="Layer_2" overflow="hidden"><style>
.MsftOfcThm_Background1_lumMod_95_Fill_v2 {
 fill:#F2F2F2; 
}
</style>
<defs/><g id="Isolation_Mode"><path d="M107 85.6C107 97.42 97.42 107 85.6 107 73.78 107 64.2 97.42 64.2 85.6 64.2 79.69 59.41 74.9 53.5 74.9 47.59 74.9 42.8 79.69 42.8 85.6 42.8 97.42 33.22 107 21.4 107 9.58 107 0 97.42 0 85.6 0 73.78 9.58 64.2 21.4 64.2 27.31 64.2 32.1 59.41 32.1 53.5 32.1 47.59 27.31 42.8 21.4 42.8 9.58 42.8 0 33.22 0 21.4 0 9.58 9.58 0 21.4 0 33.22 0 42.8 9.58 42.8 21.4 42.8 27.31 47.59 32.1 53.5 32.1 59.41 32.1 64.2 27.31 64.2 21.4 64.2 9.58 73.78-3.55271e-15 85.6-3.55271e-15 97.42-3.55271e-15 107 9.58 107 21.4 107 33.22 97.42 42.8 85.6 42.8 79.69 42.8 74.9 47.59 74.9 53.5 74.9 59.41 79.69 64.2 85.6 64.2 97.42 64.2 107 73.78 107 85.6Z" class="MsftOfcThm_Background1_lumMod_95_Fill_v2" stroke="none" stroke-width="0" stroke-linecap="butt" stroke-linejoin="miter" stroke-miterlimit="4" fill="#F2F2F2" fill-rule="evenodd" fill-opacity="1"/></g></svg>